<?xml version="1.0" encoding="utf-8"?>
<svg xmlns="http://www.w3.org/2000/svg" viewBox="1.213 0.7997 383.5692 512" width="383.5692px" height="512px">
	<circle cx="255.6" cy="210" fill="#dff0d8" id="svg_1" r="150" transform="matrix(1, 0, 0, 1, -62.99998092651367, 0.7996532917022705)"/>
	<path d="m390.54,55.72c-37.16,-37.14 -85.84,-55.72 -134.55,-55.72c-48.68,0 -97.39,18.58 -134.54,55.72c-59.22,59.22 -74.65,149.56 -36.1,218.87c44.24,79.52 170.64,237.41 170.64,237.41s126.42,-157.89 170.66,-237.41c38.54,-69.31 23.12,-159.65 -36.11,-218.87zm-134.55,250.12c-63.81,0 -115.56,-51.75 -115.56,-115.54c0,-63.86 51.75,-115.61 115.56,-115.61c63.83,0 115.58,51.75 115.58,115.61c0,63.79 -51.75,115.54 -115.58,115.54z" fill="#03bf55" id="svg_2" transform="matrix(1, 0, 0, 1, -62.99998092651367, 0.7996532917022705)"/>
	<g id="group-1" transform="matrix(0.4565570056438446, 0, 0, 0.4515640139579773, 76.67698669433594, 75.36324310302734)" style="">
		<g>
			<path class="st0" d="M256,0C114.613,0,0,114.616,0,255.996C0,397.382,114.613,512,256,512c141.386,0,256-114.617,256-256.004 C512,114.616,397.387,0,256,0z M255.996,401.912c-69.247-0.03-118.719-9.438-117.564-18.058 c6.291-47.108,44.279-51.638,68.402-70.94c10.832-8.666,16.097-6.5,16.097-20.945c0-5.053,0-14.446,0-23.111 c-6.503-7.219-8.867-6.317-14.366-34.663c-11.112,0-10.396-14.446-15.638-27.255c-4.09-9.984-0.988-14.294,2.443-16.165 c-1.852-9.87-0.682-43.01,13.532-60.259l-2.242-15.649c0,0,4.47,1.121,15.646-1.122c11.181-2.227,38.004-8.93,53.654,4.477 c37.557,5.522,47.53,36.368,40.204,72.326c3.598,1.727,7.178,5.962,2.901,16.392c-5.238,12.809-4.522,27.255-15.634,27.255 c-5.496,28.346-7.863,27.444-14.366,34.663c0,8.666,0,18.058,0,23.111c0,14.445,5.261,12.279,16.093,20.945 c24.126,19.301,62.111,23.831,68.406,70.94C374.715,392.474,325.246,401.882,255.996,401.912z"/>
		</g>
	</g>
</svg>