<?xml version="1.0" encoding="utf-8"?>
<svg xmlns="http://www.w3.org/2000/svg" viewBox="0 0 500 500" width="500px" height="500px">
    <path fill-rule="evenodd" clip-rule="evenodd" d="M 250.208 0 C 111.849 0 0 114.583 0 256.337 C 0 369.649 71.666 465.566 171.083 499.513 C 183.515 502.065 188.067 493.998 188.067 487.211 C 188.067 481.269 187.656 460.899 187.656 439.675 C 118.057 454.956 103.562 409.118 103.562 409.118 C 92.375 379.41 75.802 371.774 75.802 371.774 C 53.021 356.071 77.463 356.071 77.463 356.071 C 102.734 357.769 115.994 382.384 115.994 382.384 C 138.359 421.425 174.395 410.394 188.895 403.602 C 190.963 387.05 197.598 375.592 204.64 369.228 C 149.13 363.285 90.724 341.217 90.724 242.754 C 90.724 214.744 100.656 191.827 116.401 174.004 C 113.916 167.64 105.218 141.322 118.89 106.098 C 118.89 106.098 140.015 99.307 187.651 132.411 C 208.046 126.802 229.078 123.947 250.208 123.921 C 271.333 123.921 292.869 126.895 312.754 132.411 C 360.395 99.307 381.52 106.098 381.52 106.098 C 395.197 141.322 386.489 167.64 384.004 174.004 C 400.166 191.827 409.692 214.744 409.692 242.754 C 409.692 341.217 351.286 362.858 295.359 369.228 C 304.473 377.29 312.338 392.566 312.338 416.759 C 312.338 451.133 311.932 478.722 311.932 487.206 C 311.932 493.998 316.489 502.065 328.916 499.519 C 428.332 465.56 499.999 369.649 499.999 256.337 C 500.405 114.583 388.15 0 250.208 0 Z" fill="#6cd8af" transform="matrix(1, 0, 0, 1, 0, 7.105427357601002e-15)"/>
</svg>
