<?xml version="1.0"?>
<svg width="385" height="512" xmlns="http://www.w3.org/2000/svg" xmlns:svg="http://www.w3.org/2000/svg">

 <g class="layer">
  <title>Layer 1</title>
  <g id="SVGRepo_bgCarrier" stroke-width="0"/>
  <g id="SVGRepo_tracerCarrier" stroke-linecap="round" stroke-linejoin="round"/>
  <g id="SVGRepo_iconCarrier" transform="translate(1, -1) matrix(1, 0, 0, 1, -64, 0)">
   <!-- Circle background -->
   <circle cx="255.6" cy="210" fill="#dff0d8" id="svg_1" r="150"/>
   <!-- Change the fill color as needed -->
   <path d="m390.54,55.72c-37.16,-37.14 -85.84,-55.72 -134.55,-55.72c-48.68,0 -97.39,18.58 -134.54,55.72c-59.22,59.22 -74.65,149.56 -36.1,218.87c44.24,79.52 170.64,237.41 170.64,237.41s126.42,-157.89 170.66,-237.41c38.54,-69.31 23.12,-159.65 -36.11,-218.87zm-134.55,250.12c-63.81,0 -115.56,-51.75 -115.56,-115.54c0,-63.86 51.75,-115.61 115.56,-115.61c63.83,0 115.58,51.75 115.58,115.61c0,63.79 -51.75,115.54 -115.58,115.54z" fill="#03bf55" id="svg_2"/>
   <rect fill="#03bf55" height="115" id="svg_3" stroke-width="1.19" width="32" x="240" y="128"/>
   <rect fill="#03bf55" height="32" id="svg_4" stroke-width="1.19" width="115" x="197.5" y="169"/>
  </g>
 </g>
</svg>